<svg xmlns="http://www.w3.org/2000/svg" width="256" height="256" viewBox="0 0 256 256">
  <defs>
    <linearGradient id="g" x1="0" x2="1" y1="0" y2="1">
      <stop offset="0" stop-color="#ff86b5"/>
      <stop offset="1" stop-color="#ff5f99"/>
    </linearGradient>
  </defs>
  <rect width="256" height="256" rx="40" fill="url(#g)"/>
  <g transform="translate(40 56)">
    <rect x="16" y="78" width="144" height="56" rx="14" fill="#fff"/>
    <path d="M16 86c20 10 36 10 56 0s36-10 56 0 36 10 56 0v24c-20 10-36 10-56 0s-36-10-56 0-36 10-56 0V86z" fill="#fff1f6"/>
    <path d="M40 64a8 8 0 1 1 16 0 8 8 0 0 1-16 0Zm40-12a8 8 0 1 1 16 0 8 8 0 0 1-16 0Zm40 12a8 8 0 1 1 16 0 8 8 0 0 1-16 0Z" fill="#ff9ec5"/>
    <rect x="40" y="40" width="112" height="20" rx="10" fill="#fff"/>
  </g>
</svg>

